<?xml version="1.0" encoding="iso-8859-1"?>
<!-- Uploaded to: SVG Repo, www.svgrepo.com, Generator: SVG Repo Mixer Tools -->
<svg height="800px" width="800px" version="1.1" id="Layer_1" xmlns="http://www.w3.org/2000/svg" xmlns:xlink="http://www.w3.org/1999/xlink" 
	 viewBox="0 0 511.999 511.999" xml:space="preserve">
<path style="fill:#F7B239;" d="M488.615,232.614h-2.982c-5.245-9.142-13.464-16.352-23.343-20.315
	c-6.905-32.756-21.404-62.711-41.585-87.93l0.002-0.001l-0.017-0.017c-9.76-12.193-20.844-23.279-33.039-33.039l-0.017-0.017
	l-0.002,0.002c-25.219-20.181-55.174-34.681-87.93-41.585c-3.962-9.88-11.173-18.099-20.315-23.343v-2.982
	C279.387,10.471,268.916,0,256.001,0l0,0c-12.915,0-23.386,10.471-23.386,23.386v2.982c-9.142,5.245-16.352,13.464-20.315,23.343
	c-32.756,6.905-62.711,21.404-87.93,41.586l-0.002-0.002l-0.017,0.017c-12.193,9.76-23.279,20.844-33.039,33.039l-0.017,0.017
	l0.002,0.001c-20.181,25.219-34.681,55.174-41.585,87.93c-9.879,3.962-18.099,11.173-23.343,20.315h-2.981
	C10.471,232.614,0.001,243.085,0.001,256c0,12.915,10.471,23.386,23.386,23.386h2.982c5.245,9.142,13.464,16.353,23.343,20.315
	c6.905,32.756,21.404,62.711,41.585,87.93l-0.002,0.001l0.016,0.016c9.76,12.195,20.846,23.279,33.039,33.039l0.016,0.016
	l0.002-0.002c25.219,20.181,55.174,34.681,87.93,41.586c3.962,9.879,11.173,18.099,20.315,23.343v2.982
	c0,12.915,10.471,23.386,23.386,23.386l0,0c12.915,0,23.386-10.471,23.386-23.386v-2.982c9.142-5.245,16.353-13.464,20.315-23.343
	c32.756-6.905,62.711-21.404,87.93-41.586l0.002,0.002l0.016-0.016c12.195-9.76,23.279-20.846,33.039-33.039l0.016-0.016
	l-0.002-0.001c20.181-25.219,34.681-55.174,41.585-87.93c9.879-3.962,18.099-11.173,23.343-20.315h2.982
	c12.915,0,23.386-10.471,23.386-23.386C512.001,243.085,501.53,232.614,488.615,232.614z M67.221,270.991
	c-8.28,0-14.991-6.711-14.991-14.991s6.711-14.991,14.991-14.991S82.212,247.72,82.212,256S75.501,270.991,67.221,270.991z
	 M279.387,108.074c4.455-2.555,8.453-5.814,11.838-9.632c22.534,5.014,43.3,14.715,61.197,28.064l-73.035,73.036V108.074z
	 M256.001,52.23c8.28,0,14.991,6.711,14.991,14.991s-6.711,14.991-14.991,14.991S241.01,75.5,241.01,67.221
	S247.721,52.23,256.001,52.23z M220.776,98.442c3.386,3.818,7.384,7.076,11.838,9.632v91.468l-73.035-73.035
	C177.477,113.158,198.243,103.456,220.776,98.442z M126.507,159.579l73.035,73.035h-91.468c-2.555-4.455-5.814-8.451-9.632-11.838
	C103.457,198.243,113.158,177.476,126.507,159.579z M98.443,291.224c3.818-3.387,7.076-7.384,9.632-11.838h91.468l-73.035,73.035
	C113.158,334.524,103.457,313.758,98.443,291.224z M232.615,403.926c-4.455,2.557-8.451,5.814-11.838,9.632
	c-22.534-5.014-43.3-14.715-61.198-28.064l73.035-73.035v91.467H232.615z M256.001,459.77c-8.28,0-14.991-6.711-14.991-14.991
	s6.711-14.991,14.991-14.991s14.991,6.711,14.991,14.991S264.28,459.77,256.001,459.77z M256.001,289.441
	c-18.469,0-33.441-14.973-33.441-33.441s14.973-33.441,33.441-33.441s33.441,14.973,33.441,33.441S274.469,289.441,256.001,289.441z
	 M291.225,413.558c-3.387-3.818-7.384-7.076-11.838-9.632v-91.468l73.035,73.035C334.525,398.842,313.757,408.544,291.225,413.558z
	 M385.494,352.421l-73.035-73.035h91.468c2.555,4.455,5.814,8.453,9.632,11.838C408.544,313.757,398.843,334.524,385.494,352.421z
	 M403.927,232.614h-91.468l73.035-73.035c13.349,17.898,23.05,38.664,28.064,61.198
	C409.741,224.163,406.482,228.159,403.927,232.614z M444.78,270.991c-8.28,0-14.991-6.711-14.991-14.991s6.711-14.991,14.991-14.991
	c8.28,0,14.991,6.711,14.991,14.991S453.058,270.991,444.78,270.991z"/>
</svg>