<?xml version="1.0" encoding="iso-8859-1"?>
<!-- Uploaded to: SVG Repo, www.svgrepo.com, Generator: SVG Repo Mixer Tools -->
<!DOCTYPE svg PUBLIC "-//W3C//DTD SVG 1.1//EN" "http://www.w3.org/Graphics/SVG/1.1/DTD/svg11.dtd">
<svg fill="#000000" version="1.1" id="Capa_1" xmlns="http://www.w3.org/2000/svg" xmlns:xlink="http://www.w3.org/1999/xlink" 
	 width="800px" height="800px" viewBox="0 0 573.686 573.686"
	 xml:space="preserve">
<g>
	<g>
		<path d="M459.64,94.599C379.468-76.149,151.804,8.307,109.577,157.941c-54.162,107.1-34.884,279.99,28.152,361.998
			c-13.77,4.59-29.07-6.12-54.468-26.622c-3.672-2.754-10.71-1.53-10.098,4.284c2.754,30.6,13.77,50.796,32.436,74.664
			c3.06,3.978,10.098-1.225,7.038-5.509c-4.59-6.731-22.95-52.938-23.562-53.55c14.076,11.322,30.906,18.36,45.288,29.988
			c2.754,2.142,7.038,2.448,8.874-1.225c0.918-1.836,3.978-5.201,7.65-9.791c2.448-0.612,4.59-2.755,4.59-5.509
			c8.568-10.71,18.054-23.868,15.912-30.905c3.672,11.321,15.912,23.256,21.42,34.271c1.53,3.366,7.038,3.979,9.486,1.224
			c12.546-15.605,28.152-29.682,39.474-46.206c20.502-30.6,17.136,32.131,15.606,48.042c-0.612,5.814,7.038,7.956,10.71,4.591
			c14.994-13.771,30.906-25.398,48.347-36.108c28.152-17.442,11.017,12.546,6.732,29.988c-1.53,6.426,6.12,10.403,10.71,6.426
			c17.748-15.606,35.802-26.316,50.796-42.84c2.448,14.382,4.896,28.458,3.366,44.063c-0.612,6.427,7.344,7.956,11.322,4.59
			c53.55-43.758,56.916-33.966,59.976,13.158c0.612,8.874,14.382,8.874,13.77,0c-1.224-18.359-3.365-33.048-0.306-51.714
			c0.612-4.284-3.06-10.71-8.262-8.262c-0.918,0.306-2.143,0.918-3.061,1.224c36.414-40.697,37.944-118.728,38.862-166.158
			C502.174,253.719,492.994,165.897,459.64,94.599z M431.488,504.333c-1.836,1.836-2.448,4.284-1.836,6.12
			c-8.263,3.366-16.219,6.732-24.175,11.016c-6.12,3.366-10.403-43.758-10.403-42.228c-0.918-6.426-8.263-9.18-12.24-3.366
			c-10.71,15.606-27.846,28.152-43.758,40.393c2.447-11.629,4.896-23.562,7.956-35.19c1.224-5.508-4.59-10.098-9.486-7.344
			c-22.95,13.77-45.594,27.233-66.708,43.758c7.65-5.813-11.934-57.834-13.464-63.648c-1.224-4.896-8.874-6.426-11.322-1.529
			c-14.076,28.764-47.736,89.657-66.708,31.212c-1.53-4.59-8.262-6.12-10.71-1.53c-7.956,14.382-14.382,24.48-21.114,30.601
			C78.67,386.829,52.966,102.249,246.052,82.971c104.345-10.404,156.978,96.084,176.562,181.458
			c18.972,82.62,9.485,160.038-22.032,237.15c-2.448,6.12,6.426,10.71,10.71,6.426c60.588-61.812,41.616-196.452,22.338-270.81
			c-23.562-91.188-85.986-174.42-187.578-171.36c-41.616,1.224-74.664,16.83-100.062,41.31c30.6-43.758,74.664-75.888,130.05-88.128
			c83.231-18.666,155.753,40.698,180.845,116.28C490.24,235.359,514.72,422.325,431.488,504.333z"/>
		<path d="M221.572,356.841c-7.956-17.136-25.704-30.905-38.862-45.899c20.502-7.65,35.802-22.95,31.212-47.736
			c-5.202-26.928-39.474-39.168-63.648-38.25c-0.918,0-1.53,0.306-2.142,0.612c-2.754-2.754-9.18-1.53-8.874,3.366
			c2.754,23.562,3.06,47.736,3.366,71.298c0.306,15.912-3.06,34.271,1.224,49.571c1.836,6.732,11.628,6.732,13.464,0
			c3.978-15.605,0.612-33.966-0.306-49.571c-0.918-22.338-1.836-45.288-6.426-67.32l0,0c20.196,2.448,40.392,9.486,48.348,29.988
			c7.956,21.42-16.218,31.518-32.742,35.189c-5.202,1.225-8.262,8.263-5.202,12.546c12.852,18.36,31.212,45.288,51.714,55.08
			C218.818,368.775,224.632,362.961,221.572,356.841z"/>
		<path d="M274.51,343.377c2.448,2.143-0.918-8.874-1.53-11.934c-2.142-10.71-3.06-21.727-3.978-32.437
			c-1.836-22.95-2.142-46.512,0-69.768c0.612-5.814-9.18-7.038-10.098-1.53c-5.508,26.928-4.59,55.386-3.366,82.62
			c0.306,10.098-1.836,41.31,12.546,44.676C274.205,356.535,280.019,348.273,274.51,343.377z"/>
		<path d="M369.982,246.069c-10.404-15.3-29.683-12.852-43.759-3.978c-5.202,3.366-1.836,12.852,4.284,10.404
			c8.568-3.06,21.114-7.65,27.234,1.836c5.508,8.568,3.978,21.42,1.836,30.601c-2.448,9.791-7.038,21.113-15.912,26.621
			c-7.65,4.896-16.524-0.611-23.256-6.119c0-3.061,0-5.814,0-8.874c0.306-20.502,2.754-41.311,0.918-61.812
			c-0.612-5.814-8.262-5.814-8.874,0c-2.448,22.032-4.896,44.37-6.12,66.708c-2.448,1.836-3.672,5.202-1.53,8.568
			c0.307,0.611,0.612,0.918,0.918,1.224c-0.306,6.12-0.306,12.24-0.306,18.054c0,11.935,5.508,36.414,22.032,23.257
			c5.508-4.284-0.612-12.853-6.427-11.017c3.061-0.918,0-9.792-0.306-15.912c8.262,5.202,17.748,7.038,28.152,2.143
			c14.076-6.732,22.032-22.95,25.397-37.332C378.244,276.669,378.855,258.615,369.982,246.069z"/>
	</g>
</g>
</svg>