<?xml version="1.0" encoding="iso-8859-1"?>
<!-- Uploaded to: SVG Repo, www.svgrepo.com, Generator: SVG Repo Mixer Tools -->
<svg height="800px" width="800px" version="1.1" id="Layer_1" xmlns="http://www.w3.org/2000/svg" xmlns:xlink="http://www.w3.org/1999/xlink" 
	 viewBox="0 0 512 512" xml:space="preserve">
<polygon style="fill:#D80027;" points="512,153.602 358.4,153.602 358.4,0 153.6,0 153.6,153.602 0,153.602 0,358.402 
	153.6,358.402 153.6,512 358.4,512 358.4,358.402 512,358.402 "/>
<polygon style="fill:#A2001D;" points="358.4,153.602 358.4,0 256,0 256,512 358.4,512 358.4,358.402 512,358.402 512,153.602 "/>
<polygon style="fill:#FFFFFF;" points="341.333,221.867 290.133,221.867 290.133,170.667 221.867,170.667 221.867,221.867 
	170.667,221.867 170.667,290.133 221.867,290.133 221.867,341.333 290.133,341.333 290.133,290.133 341.333,290.133 "/>
</svg>