<?xml version="1.0" encoding="iso-8859-1"?>
<!-- Uploaded to: SVG Repo, www.svgrepo.com, Generator: SVG Repo Mixer Tools -->
<!DOCTYPE svg PUBLIC "-//W3C//DTD SVG 1.1//EN" "http://www.w3.org/Graphics/SVG/1.1/DTD/svg11.dtd">
<svg fill="#000000" height="800px" width="800px" version="1.1" id="Capa_1" xmlns="http://www.w3.org/2000/svg" xmlns:xlink="http://www.w3.org/1999/xlink" 
	 viewBox="0 0 464.329 464.329" xml:space="preserve">
<path d="M397.439,117.015L96.736,7.767V5c0-2.761-2.238-5-5-5H68.597c-2.762,0-5,2.239-5,5v454.329c0,2.761,2.238,5,5,5h23.139
	c2.762,0,5-2.239,5-5V235.663l300.703-109.249c1.977-0.718,3.293-2.596,3.293-4.699S399.416,117.733,397.439,117.015z
	 M73.597,454.329V237.16h13.139v217.169H73.597z M96.736,225.024V59.489c0-2.761-2.238-5-5-5s-5,2.239-5,5V227.16H73.597V10h13.139
	v24.253c0,2.761,2.238,5,5,5s5-2.239,5-5V18.406l284.354,103.309L96.736,225.024z"/>
</svg>