<?xml version="1.0" encoding="iso-8859-1"?>
<!-- Uploaded to: SVG Repo, www.svgrepo.com, Generator: SVG Repo Mixer Tools -->
<svg height="800px" width="800px" version="1.1" id="Layer_1" xmlns="http://www.w3.org/2000/svg" xmlns:xlink="http://www.w3.org/1999/xlink" 
	 viewBox="0 0 511.999 511.999" xml:space="preserve">
<g>
	<path style="fill:#E1EAF6;" d="M285.832,159.661l148.055,148.066c-76.138,1.206-152.671-27.254-210.775-85.358
		c-58.104-58.092-86.553-134.625-85.347-210.775L285.832,159.661z"/>
	<path style="fill:#E1EAF6;" d="M396.961,51.757c6.901,6.901,6.901,18.092,0,25.004l-8.489,8.489
		c-1.461,1.461-3.108,2.609-4.859,3.444c-6.576,3.155-14.694,2.006-20.145-3.444l-1.612-1.612l-1.612-1.612
		c-5.451-5.451-6.611-13.569-3.456-20.145c0.847-1.751,1.995-3.398,3.456-4.859l8.489-8.489c6.901-6.912,18.104-6.912,25.004,0
		L396.961,51.757z"/>
</g>
<path d="M397.964,151.222c-6.243,1.435-10.14,7.659-8.705,13.901l0.566,2.463c1.234,5.369,6.01,9.002,11.293,9.002
	c0.859,0,1.734-0.096,2.608-0.298c6.243-1.435,10.14-7.659,8.705-13.901l-0.566-2.463
	C410.43,153.684,404.215,149.788,397.964,151.222z"/>
<path d="M445.44,306.705c-0.006-0.071-0.008-0.143-0.016-0.213c-0.029-0.267-0.074-0.535-0.123-0.804
	c-0.023-0.13-0.042-0.261-0.068-0.389c-0.012-0.056-0.017-0.111-0.03-0.167l-25.501-111.075c-1.431-6.242-7.657-10.141-13.897-8.709
	c-6.243,1.433-10.142,7.657-8.709,13.899l16.474,71.757L302.234,159.662l60.705-60.705c3.7,1.836,7.733,2.868,11.827,3.041
	l7.222,31.458c1.233,5.37,6.009,9.006,11.293,9.006c0.858,0,1.733-0.096,2.605-0.297c6.243-1.433,10.142-7.657,8.709-13.899
	l-7.98-34.759c0.019-0.019,0.039-0.035,0.058-0.053l8.496-8.496c11.4-11.421,11.397-29.993-0.008-41.4l-3.216-3.216
	c-5.53-5.538-12.884-8.588-20.71-8.588c-7.826,0-15.181,3.05-20.704,8.581l-8.485,8.486c-0.02,0.02-0.037,0.042-0.057,0.061
	L140.361,0.291c-0.007-0.001-0.013-0.002-0.02-0.003c-0.114-0.026-0.231-0.042-0.347-0.065c-0.245-0.048-0.488-0.092-0.732-0.123
	c-0.121-0.015-0.242-0.026-0.364-0.037c-0.254-0.024-0.507-0.043-0.761-0.05c-0.064-0.002-0.124-0.012-0.188-0.013
	c-0.055-0.001-0.107,0.006-0.161,0.006c-0.26,0-0.518,0.009-0.777,0.027c-0.11,0.007-0.22,0.01-0.329,0.02
	c-0.34,0.032-0.678,0.077-1.012,0.138c-0.112,0.021-0.222,0.051-0.334,0.075c-0.23,0.049-0.457,0.101-0.682,0.165
	c-0.139,0.039-0.276,0.084-0.413,0.128c-0.202,0.065-0.402,0.133-0.601,0.21c-0.123,0.048-0.245,0.095-0.365,0.146
	c-0.235,0.099-0.465,0.206-0.694,0.321c-0.073,0.037-0.148,0.071-0.22,0.109c-0.963,0.508-1.853,1.153-2.647,1.918
	c-0.002,0.002-0.005,0.005-0.007,0.007c-0.257,0.249-0.505,0.511-0.74,0.786c-0.012,0.013-0.023,0.027-0.035,0.039
	c-0.226,0.266-0.441,0.543-0.644,0.83c-0.012,0.016-0.024,0.032-0.036,0.049c-0.225,0.324-0.44,0.655-0.633,1.004
	c-0.167,0.302-0.317,0.609-0.455,0.919c-0.015,0.034-0.027,0.068-0.041,0.102c-0.124,0.288-0.237,0.578-0.336,0.87
	c-0.037,0.109-0.068,0.219-0.102,0.329c-0.071,0.23-0.135,0.459-0.19,0.691c-0.03,0.125-0.058,0.251-0.085,0.378
	c-0.049,0.24-0.089,0.48-0.123,0.723c-0.016,0.112-0.035,0.223-0.046,0.336c-0.039,0.355-0.065,0.711-0.071,1.066
	c0,0.007-0.001,0.013-0.001,0.02c-0.637,40.179,6.512,79.413,21.246,116.613c13.839,34.942,33.832,66.563,59.465,94.177
	l-39.671,39.681l-51.167,51.167l-6.782-6.785c-4.53-4.529-11.871-4.529-16.402,0c-4.529,4.529-4.529,11.872,0,16.402l6.782,6.785
	l-6.548,6.548l-6.783-6.783c-4.53-4.529-11.871-4.529-16.402,0c-4.529,4.529-4.529,11.872,0,16.402l29.968,29.968
	c2.265,2.265,5.233,3.397,8.201,3.397s5.936-1.132,8.201-3.397c4.529-4.529,4.529-11.872,0-16.402l-6.783-6.783l6.546-6.546
	l6.773,6.775c2.265,2.267,5.235,3.4,8.204,3.4c2.967,0,5.933-1.132,8.197-3.393c4.531-4.528,4.533-11.87,0.007-16.401l-6.779-6.782
	l36.374-36.374l45.138,195.72h-50.742c-6.404,0-11.598,5.192-11.598,11.598s5.193,11.598,11.598,11.598h65.241
	c0.022,0,0.044,0.002,0.066,0.002c0.016,0,0.034-0.002,0.05-0.002h65.29c6.404,0,11.598-5.192,11.598-11.598
	s-5.193-11.598-11.598-11.598h-56.102l-49.599-215.065l35.127-35.135c27.618,25.635,59.242,45.628,94.182,59.47
	c35.683,14.136,73.227,21.292,111.684,21.291c1.56,0,3.13-0.013,4.694-0.036c0.016,0,0.031,0.002,0.046,0.002
	c0.016,0,0.032-0.002,0.049-0.002c0.029,0,0.057,0,0.085,0c0.154-0.001,0.304-0.02,0.457-0.028c0.198-0.01,0.398-0.015,0.596-0.036
	c0.039-0.005,0.078-0.003,0.117-0.007c0.189-0.021,0.372-0.06,0.558-0.09c0.143-0.023,0.286-0.041,0.428-0.07
	c0.089-0.017,0.179-0.035,0.267-0.055c0.016-0.003,0.031-0.005,0.048-0.008c0.092-0.021,0.177-0.053,0.268-0.075
	c0.053-0.013,0.106-0.028,0.158-0.042c0.114-0.03,0.228-0.057,0.342-0.09c0.101-0.03,0.202-0.06,0.302-0.094
	c0.135-0.045,0.263-0.099,0.395-0.148c0.021-0.008,0.041-0.015,0.061-0.023c0.099-0.038,0.199-0.071,0.298-0.111
	s0.196-0.08,0.293-0.124c0.165-0.073,0.321-0.155,0.481-0.235c0.081-0.041,0.164-0.078,0.244-0.119
	c0.088-0.046,0.176-0.093,0.263-0.142c0.184-0.104,0.362-0.218,0.539-0.332c0.055-0.035,0.111-0.066,0.165-0.102
	c0.075-0.05,0.152-0.1,0.226-0.152c0.195-0.136,0.38-0.282,0.566-0.429c0.027-0.021,0.056-0.041,0.081-0.061
	c0.012-0.009,0.023-0.017,0.035-0.026c0.065-0.053,0.13-0.106,0.193-0.159c0.183-0.155,0.356-0.32,0.529-0.486
	c0.095-0.092,0.191-0.181,0.283-0.276c0.162-0.167,0.314-0.341,0.465-0.517c0.092-0.107,0.186-0.212,0.274-0.322
	c0.138-0.173,0.267-0.353,0.394-0.532c0.088-0.124,0.177-0.247,0.261-0.375c0.117-0.18,0.224-0.364,0.331-0.55
	c0.079-0.137,0.159-0.271,0.232-0.412c0.101-0.194,0.193-0.392,0.282-0.59c0.061-0.137,0.126-0.273,0.182-0.413
	c0.09-0.222,0.168-0.447,0.245-0.674c0.041-0.122,0.085-0.241,0.121-0.364c0.079-0.263,0.144-0.53,0.204-0.799
	c0.021-0.092,0.044-0.182,0.063-0.274c0.061-0.312,0.107-0.627,0.144-0.945c0.006-0.056,0.015-0.111,0.021-0.167
	c0.034-0.347,0.05-0.696,0.052-1.047c0-0.03,0.005-0.058,0.005-0.088c0-0.009-0.001-0.019-0.001-0.028
	C445.488,307.37,445.469,307.038,445.44,306.705z M376.94,56.727c1.146-1.148,2.672-1.78,4.295-1.78s3.149,0.632,4.303,1.788
	l3.223,3.222c2.369,2.371,2.366,6.234,0,8.603l-8.491,8.491c-0.494,0.494-1.047,0.89-1.674,1.186
	c-2.32,1.115-5.104,0.636-6.927-1.186l-1.607-1.607c-0.002-0.002-0.003-0.003-0.006-0.006c-0.002-0.002-0.003-0.003-0.006-0.006
	l-1.606-1.606c-1.823-1.823-2.308-4.597-1.21-6.909c0.305-0.627,0.711-1.196,1.21-1.694L376.94,56.727z M343.507,70.733
	c0.174,4.092,1.196,8.124,3.032,11.82l-60.706,60.706L174.501,31.928L343.507,70.733z M231.312,214.168
	c-47.211-47.201-75.384-108.003-80.958-173.582l127.272,127.271c0.002,0.002,0.004,0.003,0.006,0.006s0.003,0.003,0.006,0.006
	l127.251,127.26C339.345,289.535,278.526,261.381,231.312,214.168z"/>
</svg>