<?xml version="1.0" encoding="iso-8859-1"?>
<!-- Uploaded to: SVG Repo, www.svgrepo.com, Generator: SVG Repo Mixer Tools -->
<svg xmlns="http://www.w3.org/2000/svg" xmlns:xlink="http://www.w3.org/1999/xlink" version="1.1" id="Layer_1"  viewBox="0 0 502.012 502.012" xml:space="preserve" width="512" height="512">
<g>
	<g>
		<g>
			<g>
				<path style="fill:#CCCCCC;" d="M469.871,122.162v-0.029H362.004v0.029c-0.19-0.005-0.376-0.029-0.568-0.029      c-12.542,0-22.709,10.167-22.709,22.709v95.377c0,12.542,10.167,22.709,22.709,22.709c0.192,0,0.377-0.024,0.568-0.029v32.956      v130.576c0,12.542,10.167,22.709,22.709,22.709c12.542,0,22.709-10.167,22.709-22.709V295.856h17.032v130.576      c0,12.542,10.167,22.709,22.709,22.709c12.542,0,22.709-10.167,22.709-22.709V295.856v-32.956      c12.277-0.304,22.141-10.33,22.141-22.68v-95.377C492.012,132.492,482.148,122.466,469.871,122.162z"/>
				<circle style="fill:#CCCCCC;" cx="415.937" cy="81.258" r="35.199"/>
			</g>
			<g>
				<path style="fill:#CCCCCC;" d="M203.566,231.485l-39.74-95.377c-3.975-9.541-13.705-14.921-23.486-13.823      c-0.502-0.089-1.01-0.152-1.531-0.152H76.522c-0.688,0-1.359,0.091-2.012,0.246c-10.087-1.433-20.233,4.073-24.228,13.943      l-38.605,95.377c-4.705,11.626,0.904,24.864,12.53,29.57c2.791,1.13,5.676,1.665,8.512,1.665      c8.978,0,17.482-5.361,21.058-14.195l7.537-18.622c-2.471,17.595-6.017,34.946-10.645,51.88l-11.046,40.42      c-3.971,14.53,3.028,29.638,14.11,32.944v71.07c0,12.542,10.167,22.709,22.709,22.709s22.709-10.167,22.709-22.709v-70.397      h17.032v70.397c0,12.542,10.167,22.709,22.709,22.709s22.709-10.167,22.709-22.709v-71.07      c11.081-3.306,18.081-18.415,14.11-32.944l-11.046-40.42c-4.557-16.675-8.065-33.754-10.531-51.072l7.512,18.028      c3.634,8.722,12.077,13.981,20.971,13.981c2.911,0,5.87-0.563,8.725-1.753C202.915,256.358,208.39,243.062,203.566,231.485z"/>
				<circle style="fill:#CCCCCC;" cx="107.665" cy="81.258" r="35.199"/>
			</g>
			<g>
				<path style="fill:#666666;" d="M273.44,455.953c-12.542,0-22.709-10.167-22.709-22.709V71.039      c0-12.542,10.167-22.709,22.709-22.709c12.542,0,22.709,10.167,22.709,22.709v362.205      C296.148,445.786,285.982,455.953,273.44,455.953z"/>
			</g>
		</g>
	</g>
	<g>
		<path d="M471.032,112.2c-0.381-0.044-0.769-0.067-1.162-0.067h-20.968c7.578-8.086,12.233-18.945,12.233-30.875    c0-24.923-20.276-45.199-45.198-45.199c-24.923,0-45.199,20.276-45.199,45.199c0,11.931,4.655,22.789,12.233,30.875h-20.968    c-0.092,0-0.183,0.001-0.274,0.004c-0.098-0.002-0.195-0.004-0.294-0.004c-18.036,0-32.708,14.673-32.708,32.709v95.377    c0,14.757,9.825,27.264,23.276,31.322v154.89c0,18.036,14.673,32.709,32.709,32.709c14.641,0,27.065-9.669,31.224-22.958    c4.159,13.288,16.584,22.958,31.225,22.958c18.036,0,32.708-14.673,32.708-32.709V271.192    c12.972-4.351,22.141-16.507,22.141-30.973v-95.377C502.012,127.268,488.478,113.1,471.032,112.2z M415.937,56.059    c13.895,0,25.198,11.304,25.198,25.199s-11.304,25.199-25.198,25.199s-25.199-11.304-25.199-25.199S402.043,56.059,415.937,56.059    z M482.012,240.219c0,6.94-5.442,12.511-12.389,12.683c-5.425,0.135-9.752,4.571-9.752,9.997v163.532    c0,7.008-5.701,12.709-12.708,12.709c-7.008,0-12.709-5.701-12.709-12.709V295.855c0-5.523-4.477-10-10-10h-17.032    c-5.523,0-10,4.477-10,10v130.576c0,7.008-5.701,12.709-12.708,12.709c-7.008,0-12.709-5.701-12.709-12.709V262.899    c0-2.692-1.085-5.271-3.011-7.152c-1.926-1.881-4.537-2.894-7.22-2.845c-0.178,0.004-0.355,0.013-0.545,0.024    c-6.912-0.111-12.501-5.769-12.501-12.707v-95.377c0-6.937,5.585-12.593,12.495-12.707c0.183,0.011,0.366,0.02,0.551,0.024    c0.33,0.008,0.656-0.001,0.981-0.026h106.354c0.17,0.013,0.341,0.021,0.514,0.026c6.947,0.172,12.389,5.743,12.389,12.683V240.219    z"/>
		<path d="M173.057,132.261c-5.384-12.921-18.601-21.018-32.486-20.036c-0.009-0.001-0.017,0-0.025-0.001    c7.629-8.096,12.319-18.99,12.319-30.966c0-24.923-20.276-45.199-45.199-45.199S62.467,56.335,62.467,81.258    c0,11.977,4.692,22.873,12.322,30.969c-0.19,0.018-0.379,0.031-0.57,0.055c-14.288-1.285-27.775,6.871-33.207,20.289    L2.407,227.947c-3.278,8.099-3.206,16.989,0.203,25.034c3.409,8.044,9.746,14.28,17.844,17.558    c3.927,1.59,8.053,2.396,12.265,2.396c3.621,0,7.131-0.586,10.427-1.687c-0.681,2.722-1.389,5.427-2.124,8.114l-11.045,40.419    c-4.515,16.518,1.649,33.873,13.755,41.826v64.825c0,18.036,14.673,32.709,32.709,32.709c14.641,0,27.066-9.668,31.225-22.957    c4.159,13.288,16.583,22.957,31.225,22.957c18.036,0,32.709-14.673,32.709-32.709v-64.825    c12.106-7.953,18.27-25.308,13.756-41.825l-11.046-40.42c-0.735-2.69-1.444-5.397-2.126-8.122c3.3,1.105,6.813,1.694,10.431,1.694    c4.325,0,8.554-0.849,12.571-2.522c16.648-6.937,24.549-26.125,17.612-42.773L173.057,132.261z M107.665,56.059    c13.895,0,25.199,11.304,25.199,25.199s-11.304,25.199-25.199,25.199S82.467,95.152,82.467,81.258S93.771,56.059,107.665,56.059z     M141.456,132.223c5.639,0,10.981,2.553,13.139,7.731l39.74,95.377c2.695,6.469-0.375,13.924-6.842,16.619    c-1.567,0.653-3.208,0.984-4.879,0.984c-5.151,0-9.759-3.072-11.74-7.827l-7.511-18.028c-1.937-4.648-7.026-7.131-11.88-5.796    c-4.854,1.333-7.961,6.068-7.251,11.052c2.532,17.779,6.16,35.374,10.785,52.298l11.046,40.42    c2.595,9.496-1.883,19.102-7.322,20.725c-4.237,1.264-7.141,5.161-7.141,9.583v71.07c0,7.008-5.701,12.709-12.709,12.709    s-12.709-5.701-12.709-12.709v-70.397c0-5.523-4.477-10-10-10H99.15c-5.523,0-10,4.477-10,10v70.397    c0,7.008-5.701,12.709-12.709,12.709s-12.709-5.701-12.709-12.709v-71.07c0-4.422-2.904-8.319-7.141-9.583    c-5.439-1.623-9.917-11.229-7.322-20.725l11.045-40.42c4.696-17.183,8.364-35.057,10.902-53.125    c0.703-5.001-2.434-9.741-7.312-11.05c-4.876-1.31-9.965,1.225-11.86,5.907l-7.538,18.622c-1.954,4.828-6.581,7.947-11.788,7.947    c-1.627,0-3.229-0.314-4.76-0.935c-3.147-1.273-5.609-3.696-6.934-6.822c-1.324-3.125-1.353-6.58-0.079-9.727l38.604-95.376    c2.191-5.412,7.961-7.795,13.552-7.795L141.456,132.223z"/>
		<path d="M273.439,38.33c-18.036,0-32.709,14.673-32.709,32.708v362.205c0,18.036,14.673,32.709,32.709,32.709    s32.709-14.673,32.709-32.709V71.039C306.148,53.003,291.475,38.33,273.439,38.33z M286.148,433.244    c0,7.008-5.701,12.709-12.709,12.709c-7.007,0-12.708-5.701-12.708-12.709V71.039c0-7.007,5.701-12.708,12.708-12.708    c7.008,0,12.709,5.701,12.709,12.708V433.244z"/>
		<path d="M382.012,164.006c-5.523,0-10,4.477-10,10v5c0,5.523,4.477,10,10,10s10-4.477,10-10v-5    C392.012,168.483,387.535,164.006,382.012,164.006z"/>
		<path d="M382.012,199.005c-5.523,0-10,4.477-10,10v25c0,5.523,4.477,10,10,10s10-4.477,10-10v-25    C392.012,203.482,387.535,199.005,382.012,199.005z"/>
	</g>
</g>















</svg>