<?xml version="1.0" encoding="iso-8859-1"?>
<!-- Uploaded to: SVG Repo, www.svgrepo.com, Generator: SVG Repo Mixer Tools -->
<svg fill="#000000" version="1.1" id="Layer_1" xmlns="http://www.w3.org/2000/svg" xmlns:xlink="http://www.w3.org/1999/xlink" 
	 viewBox="0 0 286.153 286.153" xml:space="preserve">
<g>
	<g>
		<g>
			<path d="M244.615,227.774v-18.462l-32.308-14.363v-5.718h-9.231V180h9.231v-9.231h-10.265
				c-2.331-7.648-9.817-24.697-31.274-33.868v-30.748H180v-9.231h-19.375l-7.182-32.308h3.48V36.923h-9.231v-9.231h4.615v-9.231
				h-4.615v-4.615h-9.231v4.615h-4.615v9.231h4.615v9.231h-9.231v27.692h3.48l-7.182,32.308h-19.375v9.231h9.231v30.748
				c-21.452,9.171-28.943,26.22-31.274,33.868H73.846V180h9.277l-0.032,9.231h-9.245v5.718l-32.308,14.363v18.462L0,246.235v26.072
				h64.615h156.923h64.615v-26.072L244.615,227.774z M183.388,235.385l16.154,9.231H86.608l16.154-9.231H183.388z M106.154,226.154
				v-9.231H180v9.231H106.154z M189.231,226.154v-9.231h46.154v9.231H189.231z M138.462,46.154h9.231v9.231h-9.231V46.154z
				 M141.138,69.231h3.882l6.152,27.692H134.99L141.138,69.231z M124.615,106.154h36.923v27.863l-36.923-0.171V106.154z
				 M125.275,143.077h35.608c20.418,6.065,28.449,19.975,31.422,27.692h-30.766h-36.923H93.854
				C96.831,163.043,104.862,149.137,125.275,143.077z M193.846,180v9.231h-32.308V180H193.846z M152.308,180v9.231h-18.462V180
				H152.308z M92.308,180h32.308v9.231H92.308V180z M88.676,198.462h35.939h36.923h35.94l20.774,9.231H189.23H96.923H67.902
				L88.676,198.462z M50.769,216.923h46.154v9.231H50.769V216.923z M64.616,263.077H9.231v-9.231h55.385V263.077z M64.615,244.616
				H26.358l20.77-9.231h37.029l-16.154,9.231H64.615z M212.308,263.077H73.846v-9.231h138.462V263.077z M218.146,244.615
				l-16.154-9.231h37.029l20.769,9.231h-38.252H218.146z M276.923,263.077h-55.385v-9.231h55.385V263.077z"/>
			<polygon points="133.846,124.615 138.462,124.615 138.462,133.846 147.692,133.846 147.692,124.615 152.308,124.615 
				152.308,115.385 133.846,115.385 			"/>
			<rect x="115.385" y="152.308" width="9.231" height="9.231"/>
			<rect x="133.846" y="152.308" width="9.231" height="9.231"/>
		</g>
	</g>
</g>
</svg>