<?xml version="1.0" encoding="iso-8859-1"?>
<!-- Uploaded to: SVG Repo, www.svgrepo.com, Generator: SVG Repo Mixer Tools -->
<!DOCTYPE svg PUBLIC "-//W3C//DTD SVG 1.1//EN" "http://www.w3.org/Graphics/SVG/1.1/DTD/svg11.dtd">
<svg fill="#000000" version="1.1" id="Capa_1" xmlns="http://www.w3.org/2000/svg" xmlns:xlink="http://www.w3.org/1999/xlink" 
	 width="800px" height="800px" viewBox="0 0 316.417 316.417"
	 xml:space="preserve">
<g>
	<path d="M312.948,117.426L160.75,33.229c-1.617-0.897-3.585-0.897-5.203,0L2.774,117.744c-2.147,1.189-3.215,3.677-2.604,6.048
		c0.613,2.37,2.753,4.031,5.204,4.031h5.462v7.622c0,2.969,2.407,5.375,5.375,5.375h6.552v7.63c0,2.966,2.409,5.375,5.375,5.375
		h7.617v93.279H28.14c-2.967,0-5.375,2.41-5.375,5.376v7.627h-6.552c-2.968,0-5.375,2.41-5.375,5.375v13.003
		c0,2.966,2.407,5.376,5.375,5.376h283.886c2.966,0,5.376-2.41,5.376-5.376v-13.003c0-2.965-2.41-5.375-5.376-5.375h-6.557v-7.627
		c0-2.966-2.405-5.376-5.376-5.376h-7.611v-93.273h7.616c2.972,0,5.376-2.409,5.376-5.375v-7.628h6.557
		c2.966,0,5.376-2.409,5.376-5.375v-7.625h5.459c0.031,0,0.067-0.005,0.105,0c2.972,0,5.374-2.406,5.374-5.375
		C316.408,120.159,314.97,118.196,312.948,117.426z M46.501,153.831h15.255v93.273H46.501V153.831z M72.507,153.831h15.255v93.278
		H72.507V153.831z M139.771,153.831v93.278h-15.255v-93.278H139.771z M191.781,153.831v93.278h-15.254v-93.278H191.781z
		 M217.787,247.1h-15.255v-93.269h15.255V247.1z M165.776,247.1h-15.255v-93.269h15.255V247.1z M113.765,247.1H98.513v-93.269
		h15.252V247.1z M294.708,273.11H21.583v-2.252h6.552h260.026h6.552v2.252H294.708z M282.785,260.107H33.509v-2.252h249.275V260.107
		z M228.538,247.104v-93.273h15.255v93.278h-15.255V247.104z M269.797,247.1h-15.254v-93.269h15.254V247.1z M282.791,143.081h-7.617
		h-26.006h-26.005h-26.006h-26.006h-26.005H119.14H93.138H67.132H41.127h-7.618v-2.252h249.281V143.081z M294.712,130.078h-6.552
		H28.134h-6.552v-2.25h273.13V130.078z"/>
</g>
</svg>