<?xml version="1.0" encoding="iso-8859-1"?>
<!-- Uploaded to: SVG Repo, www.svgrepo.com, Generator: SVG Repo Mixer Tools -->
<svg version="1.1" id="Layer_1" xmlns="http://www.w3.org/2000/svg" xmlns:xlink="http://www.w3.org/1999/xlink" 
	 viewBox="0 0 512 512" xml:space="preserve">
<g>
	<path style="fill:#E6E6E6;" d="M361.381,243.341v83.12c-3.224,0.131-201.1,0.191-201.1,0.191c-3.224,0-6.449-0.06-9.673-0.191
		v-83.12c9.566,3.272,19.777,5.016,30.274,5.016h150.225C341.604,248.357,351.803,246.613,361.381,243.341z"/>
	<path style="fill:#E6E6E6;" d="M305.012,84.899c-4.861,0.299-9.745,29.904-14.63,29.904l-71.404-4.777
		c-2.544,0-4.383-6.759-6.246-13.28c-1.696-5.959-3.439-11.716-5.756-11.847L256,0L305.012,84.899z"/>
	<path style="fill:#E6E6E6;" d="M296.366,127.475h-80.743c-10.163,0-20.051-1.636-29.367-4.705v100.114h139.477V122.769
		C316.429,125.838,306.541,127.475,296.366,127.475z"/>
</g>
<path style="fill:#CCCCCC;" d="M361.381,235.578v29.856c-9.578,3.272-19.777,5.016-30.274,5.016H180.882
	c-10.497,0-20.708-1.744-30.274-5.016v-29.856c9.566,3.272,19.777,5.016,30.274,5.016h150.225
	C341.604,240.594,351.803,238.851,361.381,235.578z"/>
<path style="fill:#F95428;" d="M419.004,187.33c-6.843,18.356-19.036,33.606-34.406,44.271c-7.118,4.956-14.94,8.921-23.216,11.74
	c-9.578,3.272-19.777,5.016-30.274,5.016H180.882c-10.497,0-20.708-1.744-30.274-5.016c-26.142-8.921-47.591-29.152-57.611-56.01
	c14.868,6.234,30.274,10.951,45.991,14.128c15.525,3.117,31.361,4.729,47.269,4.765c0.203,0,0.406,0,0.609,0h138.259
	c0.203,0,0.406,0,0.609,0C357.774,206.14,389.47,199.715,419.004,187.33z"/>
<g>
	<path style="fill:#CCCCCC;" d="M256,0l-28.065,97.487l-15.203-0.74c-1.696-5.959-3.439-11.716-5.756-11.847L256,0z"/>
	<path style="fill:#CCCCCC;" d="M325.732,117.395v27.265H186.256v-27.265c9.315,3.069,19.204,4.705,29.367,4.705h80.743
		C306.541,122.1,316.429,120.464,325.732,117.395z"/>
</g>
<path style="fill:#F95428;" d="M384.263,66.46c-6.855,18.344-19.036,33.594-34.394,44.259c-7.392,5.135-15.513,9.208-24.136,12.05
	c-9.303,3.069-19.192,4.705-29.367,4.705h-80.743c-10.163,0-20.051-1.636-29.367-4.705c-26.548-8.766-48.391-29.152-58.518-56.309
	c14.856,6.234,30.274,10.951,45.991,14.116c10.963,2.209,22.07,3.654,33.248,4.323c4.861,0.299,9.745,0.442,14.63,0.442h68.777
	c4.884,0,9.769-0.143,14.63-0.442C332.253,83.263,359.04,77.041,384.263,66.46z"/>
<g>
	<rect x="274.583" y="411.372" style="fill:#808080;" width="44.187" height="100.628"/>
	<rect x="193.23" y="411.372" style="fill:#808080;" width="44.187" height="100.628"/>
	<path style="fill:#808080;" d="M324.669,293.141v33.511H291.23v-33.511c0-9.232,7.476-16.72,16.72-16.72
		C317.182,276.422,324.669,283.91,324.669,293.141z"/>
	<path style="fill:#808080;" d="M220.77,293.141v33.511H187.33v-33.511c0-9.232,7.476-16.72,16.72-16.72
		C213.282,276.422,220.77,283.91,220.77,293.141z"/>
</g>
<g>
	<path style="fill:#B3B3B3;" d="M154.297,368.785V512h-37.834V360.82C128.143,365.979,140.982,368.785,154.297,368.785z"/>
	<path style="fill:#B3B3B3;" d="M395.548,360.808V512h-37.858V368.785C371.007,368.785,383.857,365.967,395.548,360.808z"/>
</g>
<polygon style="fill:#E6E6E6;" points="357.691,368.785 357.691,512 318.77,512 318.77,411.372 274.583,411.372 274.583,512 
	237.417,512 237.417,411.372 193.23,411.372 193.23,512 154.297,512 154.297,368.785 "/>
<g>
	<path style="fill:#999999;" d="M116.464,360.82c11.68,5.159,24.518,7.966,37.834,7.966v32.245c-13.316,0-26.154-2.807-37.834-7.966
		V360.82z"/>
	<path style="fill:#999999;" d="M395.548,360.808v32.245c-11.692,5.159-24.542,7.978-37.858,7.978v-32.245
		C371.007,368.785,383.857,365.967,395.548,360.808z"/>
</g>
<rect x="154.297" y="368.785" style="fill:#CCCCCC;" width="203.393" height="23.885"/>
<path style="fill:#F95428;" d="M116.464,362.096c-22.679-11.15-41.023-32.119-50.051-59.102c14.868,6.946,30.274,12.2,45.991,15.727
	c12.575,2.821,25.354,4.524,38.204,5.096c3.224,0.147,6.449,0.213,9.673,0.213h27.05h33.439h70.461h33.439h27.038
	c3.224,0,6.449-0.067,9.673-0.213c28.937-1.291,57.456-8.316,84.207-20.823c-6.843,20.437-19.036,37.428-34.406,49.31
	c-4.908,3.805-10.139,7.078-15.633,9.78c-11.692,5.748-24.542,8.888-37.858,8.888H154.297
	C140.982,370.971,128.143,367.844,116.464,362.096z"/>
<path style="fill:#808080;" d="M256,149.831c10.771,0,19.508,8.737,19.508,19.508c0,10.771-8.737,19.508-19.508,19.508
	c-10.785,0-19.508-8.737-19.508-19.508C236.492,158.568,245.215,149.831,256,149.831z"/>
</svg>