<?xml version="1.0" ?>
<!-- Uploaded to: SVG Repo, www.svgrepo.com, Generator: SVG Repo Mixer Tools -->
<svg width="800px" height="800px" viewBox="0 0 512 512" id="Layer_1" version="1.1" xml:space="preserve" xmlns="http://www.w3.org/2000/svg" xmlns:xlink="http://www.w3.org/1999/xlink">
<style type="text/css">
	.st0{fill:#2B79C2;}
	.st1{fill:#3B4652;}
</style>
<g>
<path class="st1" d="M82.5,418.4h263.6V186.6H82.5V418.4z M236.1,360.9h-43.7v-43.7h43.7V360.9z M303.5,360.9h-43.7v-43.7h43.7   V360.9z M125,244.1h178.5v39H125V244.1z M125,317.2h43.7v43.7H125V317.2z"/>
<polygon class="st1" points="17.5,226.7 17.5,378.3 36.4,378.3 68.5,338.4 68.5,266.6 36.4,226.7  "/>
<path class="st0" d="M147.1,52.2c-37.1,0-67.2,30.1-67.2,67.2c0,21.6,10.2,40.9,26.1,53.2h82.1c15.9-12.3,26.1-31.5,26.1-53.2   C214.3,82.3,184.2,52.2,147.1,52.2z M147.1,150.7c-17.3,0-31.4-14-31.4-31.3c0-17.3,14-31.3,31.4-31.3c17.3,0,31.3,14,31.3,31.3   C178.4,136.7,164.4,150.7,147.1,150.7z"/>
<path class="st0" d="M281.4,52.2c-37.1,0-67.2,30.1-67.2,67.2c0,21.6,10.2,40.9,26.1,53.2h82.1c15.9-12.3,26.1-31.5,26.1-53.2   C348.6,82.3,318.5,52.2,281.4,52.2z M281.4,150.7c-17.3,0-31.3-14-31.3-31.3c0-17.3,14-31.3,31.3-31.3s31.4,14,31.4,31.3   C312.8,136.7,298.7,150.7,281.4,150.7z"/>
<polygon class="st0" points="127.3,432.4 113.1,459.8 315.4,459.8 301.2,432.4  "/>
<path class="st1" d="M473.1,179.6L389,253.8v-29.7h-28.9v156.8H389v-29.7l84.1,74.2c8.3,7.4,21.5,1.4,21.5-9.7V189.3   C494.5,178.1,481.4,172.2,473.1,179.6z"/>
</g>
</svg>